<svg width="40" height="40" viewBox="0 0 40 40" fill="none" xmlns="http://www.w3.org/2000/svg">
<path d="M20.0154 -8.43143e-05C8.96898 -0.00938119 0.00921256 8.93804 -8.43143e-05 19.9844C-0.00938119 31.0308 8.93804 39.9906 19.9844 39.9999C31.0294 39.9906 39.9829 31.0448 39.9999 19.9999C39.9999 8.95968 31.0556 0.00921256 20.0154 -8.43143e-05ZM19.9844 36.6718C10.777 36.6718 3.31265 29.2073 3.31265 19.9999C3.31265 10.7925 10.777 3.32812 19.9844 3.32812C29.1887 3.33742 36.6469 10.7956 36.6562 19.9999C36.6562 29.2073 29.1919 36.6718 19.9844 36.6718Z" fill="white"/>
<path d="M25.3871 19.0249C26.7246 18.271 27.4475 16.7618 27.1983 15.2478C26.8887 12.9104 24.1024 12.0279 21.9042 11.8422V8.32834H19.737V11.8113H18.2819V8.32834H16.1147V11.8113H11.7493V14.0559H13.3747C14.1023 14.0559 14.4583 14.2726 14.4583 14.8608V24.5048C14.4583 25.3097 14.0558 25.5575 13.6224 25.5575H11.966V27.8485H16.1766V31.4089H18.3592V27.8485H19.8143V31.4089H21.9351V27.8485H22.3995C26.8577 27.8485 28.3438 25.6658 28.3438 22.6937C28.3082 20.9413 27.093 19.4336 25.3871 19.0249ZM18.2818 14.1952H19.8298C20.9134 14.1952 23.0496 14.381 23.0496 16.1457C23.1239 17.2974 22.2896 18.3067 21.1456 18.4522H18.2818V14.1952ZM20.6812 25.3407V25.3252H18.2818V20.6812H21.0682C21.7184 20.6812 24.1642 20.8979 24.1642 22.6317C24.1642 24.3654 23.0032 25.3407 20.6812 25.3407Z" fill="white"/>
</svg>
