<svg width="94" height="30" viewBox="0 0 94 30" fill="none" xmlns="http://www.w3.org/2000/svg">
<path d="M38.4474 0L33.7433 29.2729H41.2622L45.9634 0H38.4474ZM61.127 11.9242C58.4995 10.6266 56.8888 9.7509 56.8888 8.42382C56.9209 7.2172 58.2509 5.98103 61.2208 5.98103C63.6636 5.91967 65.4591 6.49375 66.8212 7.06493L67.5035 7.36947L68.5257 1.24484C67.0406 0.67077 64.6858 0.0382274 61.7772 0.0382274C54.3522 0.0382274 49.1238 3.89869 49.0914 9.42001C49.03 13.4944 52.8346 15.7554 55.6818 17.1117C58.5904 18.503 59.5805 19.4051 59.5805 20.6413C59.5484 22.5392 57.2286 23.4149 55.064 23.4149C52.0649 23.4149 50.4538 22.9639 48.0081 21.9064L47.018 21.4553L45.9666 27.8202C47.7328 28.6054 50.981 29.2964 54.3525 29.3317C62.2433 29.3317 67.3779 25.5297 67.4425 19.6454C67.4682 16.4175 65.4619 13.9451 61.127 11.9242ZM87.8017 0.0905918H81.9845C80.1919 0.0905918 78.8298 0.606198 78.0537 2.44568L66.8851 29.2729H74.7759L76.9492 23.4647H85.7775L86.9051 29.2964H93.8646L87.8017 0.0905918ZM79.1376 17.6032C79.2898 17.618 82.1663 8.12184 82.1663 8.12184L84.4568 17.6032C84.4568 17.6032 80.6227 17.6032 79.1376 17.6032ZM27.4606 0L20.0941 19.8883L19.2916 15.9661C17.9295 11.4407 13.6591 6.52298 8.89336 4.08019L15.639 29.2437H23.5944L35.4161 0.00321074H27.4606V0Z" fill="white"/>
<path d="M16.8135 3.77531C16.2394 1.54327 14.4086 0.0378928 11.9221 0.00576782H0.255585L0.135437 0.547394C9.23613 2.791 16.8748 9.69466 19.3529 16.1884L16.8135 3.77531Z" fill="white"/>
</svg>
